<svg width="64" height="64" viewBox="0 0 64 64" fill="none" xmlns="http://www.w3.org/2000/svg">
<g clip-path="url(#clip0_1537_933)">
<path d="M0 22.1867C0 11.7278 0 6.49833 3.24916 3.24916C6.49833 0 11.7278 0 22.1867 0H41.8133C52.2722 0 57.5017 0 60.7508 3.24916C64 6.49833 64 11.7278 64 22.1867V41.8133C64 52.2722 64 57.5017 60.7508 60.7508C57.5017 64 52.2722 64 41.8133 64H22.1867C11.7278 64 6.49833 64 3.24916 60.7508C0 57.5017 0 52.2722 0 41.8133V22.1867Z" fill="#4945FF"/>
<path fill-rule="evenodd" clip-rule="evenodd" d="M44.1599 19.4131H22.6133V30.3998H33.5999V41.3864H44.5866V19.8398C44.5866 19.6041 44.3956 19.4131 44.1599 19.4131Z" fill="white"/>
<path d="M33.6 30.4004H33.1733V30.8271H33.6V30.4004Z" fill="white"/>
<path d="M22.6133 30.4004H33.1733C33.4089 30.4004 33.5999 30.5914 33.5999 30.8271V41.3871H23.0399C22.8043 41.3871 22.6133 41.196 22.6133 40.9604V30.4004Z" fill="#9593FF"/>
<path d="M33.6 41.3867H44.5866L33.9641 52.0092C33.8297 52.1436 33.6 52.0484 33.6 51.8584V41.3867Z" fill="#9593FF"/>
<path d="M22.6133 30.3998H12.1416C11.9515 30.3998 11.8564 30.17 11.9908 30.0356L22.6133 19.4131V30.3998Z" fill="#9593FF"/>
</g>
<defs>
<clipPath id="clip0_1537_933">
<rect width="64" height="64" fill="white"/>
</clipPath>
</defs>
</svg>
